HIERARCHY
ROOT Hips
{
 OFFSET 0.000000 0.000000 0.000000
 CHANNELS 6 Xposition Yposition Zposition Yrotation Xrotation Zrotation
 JOINT Chest
 {
  OFFSET 0.000000 9.585900 0.002600
  CHANNELS 3 Yrotation Xrotation Zrotation
  JOINT Chest2
  {
   OFFSET 0.000000 9.601200 -0.005300
   CHANNELS 3 Yrotation Xrotation Zrotation
   JOINT Chest3
   {
    OFFSET 0.000000 9.561800 0.000000
    CHANNELS 3 Yrotation Xrotation Zrotation
    JOINT Chest4
    {
     OFFSET 0.000000 9.552100 0.000000
     CHANNELS 3 Yrotation Xrotation Zrotation
     JOINT Neck
     {
      OFFSET 0.000000 14.453000 0.000000
      CHANNELS 3 Yrotation Xrotation Zrotation
      JOINT Head
      {
       OFFSET 0.000000 8.936500 -0.011300
       CHANNELS 3 Yrotation Xrotation Zrotation
       End Site
       {
        OFFSET 0.000000 17.073600 -0.006000
       }
      }
     }
     JOINT RightCollar
     {
      OFFSET -2.921100 9.558500 0.000000
      CHANNELS 3 Yrotation Xrotation Zrotation
      JOINT RightShoulder
      {
       OFFSET -13.519700 0.000000 0.000000
       CHANNELS 3 Yrotation Xrotation Zrotation
       JOINT RightElbow
       {
        OFFSET 0.000000 -29.696600 0.000000
        CHANNELS 3 Yrotation Xrotation Zrotation
        JOINT RightWrist
        {
         OFFSET 0.000000 -24.004700 0.000000
         CHANNELS 3 Yrotation Xrotation Zrotation
         End Site
         {
          OFFSET 0.000000 -17.728500 0.000000
         }
        }
       }
      }
     }
     JOINT LeftCollar
     {
      OFFSET 2.921100 9.558500 0.000000
      CHANNELS 3 Yrotation Xrotation Zrotation
      JOINT LeftShoulder
      {
       OFFSET 13.519700 0.000000 0.000000
       CHANNELS 3 Yrotation Xrotation Zrotation
       JOINT LeftElbow
       {
        OFFSET 0.000000 -29.696600 0.000000
        CHANNELS 3 Yrotation Xrotation Zrotation
        JOINT LeftWrist
        {
         OFFSET 0.000000 -24.004700 0.000000
         CHANNELS 3 Yrotation Xrotation Zrotation
         End Site
         {
          OFFSET 0.000000 -17.728500 0.000000
         }
        }
       }
      }
     }
    }
   }
  }
 }
 JOINT RightHip
 {
  OFFSET -7.771700 -0.012900 -0.001300
  CHANNELS 3 Yrotation Xrotation Zrotation
  JOINT RightKnee
  {
   OFFSET 0.000000 -40.869800 0.001200
   CHANNELS 3 Yrotation Xrotation Zrotation
   JOINT RightAnkle
   {
    OFFSET 0.000000 -39.717900 0.002100
    CHANNELS 3 Yrotation Xrotation Zrotation
    JOINT RightToe
    {
     OFFSET 0.000000 -4.965400 11.033500
     CHANNELS 3 Yrotation Xrotation Zrotation
     End Site
     {
      OFFSET 0.000000 -1.423100 5.872300
     }
    }
   }
  }
 }
 JOINT LeftHip
 {
  OFFSET 7.771700 -0.012900 -0.001300
  CHANNELS 3 Yrotation Xrotation Zrotation
  JOINT LeftKnee
  {
   OFFSET 0.000000 -40.869800 0.001200
   CHANNELS 3 Yrotation Xrotation Zrotation
   JOINT LeftAnkle
   {
    OFFSET 0.000000 -39.717900 0.002100
    CHANNELS 3 Yrotation Xrotation Zrotation
    JOINT LeftToe
    {
     OFFSET 0.000000 -4.965400 11.033500
     CHANNELS 3 Yrotation Xrotation Zrotation
     End Site
     {
      OFFSET 0.000000 -1.423100 5.872300
     }
    }
   }
  }
 }
}
MOTION
Frames: 7
Frame Time: 0.008333
0.000000 85.388000 0.000000 0.000000 -5.767877 0.000000 0.000000 11.653817 0.000000 0.000000 -5.885947 0.000000 0.000000 -0.000000 0.000000 0.000000 -0.000000 0.000000 0.000000 12.528835 0.000000 0.000000 0.711642 0.000000 0.000000 -0.000000 0.000000 0.000000 0.000000 -90.000000 0.000000 -2.309062 0.000000 0.000000 2.309062 0.000000 0.000000 -0.000000 0.000000 0.000000 -0.000000 90.000000 0.000000 -2.309062 0.000000 0.000000 2.309062 0.000000 0.000000 8.520406 0.000000 0.000000 1.905762 0.000000 -0.000000 -4.658285 0.000000 0.000000 -0.000000 0.000000 0.000000 8.520406 0.000000 0.000000 1.905762 0.000000 -0.000000 -4.658285 0.000000 0.000000 -0.000000 0.000000
-76.232825 44.506110 19.467433 177.147701 -28.489893 -2.546430 2.717349 13.452939 1.781367 0.178605 1.113802 0.168510 0.304905 1.888500 0.287812 2.143940 12.057749 2.042807 -0.164455 21.731457 -1.579266 0.184404 -2.539092 -1.653299 7.499969 -0.641450 -5.271596 16.753192 -19.525828 -7.299140 -159.717920 -46.042610 -173.500662 1.691353 -2.746487 -34.739232 -26.161707 -0.132069 3.527846 -23.948996 -32.753528 4.841742 151.691645 -57.640813 179.080928 4.982975 -0.510728 0.805368 5.433706 -63.392292 6.135088 -137.772539 65.934886 -134.934048 -8.921877 -26.144438 9.110352 -0.503061 -0.672859 -0.227641 -1.433410 -52.574334 -0.533020 174.411376 63.136272 173.577564 0.403305 -35.672454 1.719491 0.333250 0.306970 0.042416
-76.238528 44.491422 19.484880 177.102259 -28.669964 -2.575504 2.738492 13.340243 1.647969 0.177305 1.096436 0.154003 0.302623 1.860120 0.263329 2.133297 11.985583 1.898533 -0.007207 21.754888 -1.362974 0.303411 -2.514961 -1.457487 7.370338 -0.729922 -4.957677 16.880486 -19.749049 -7.735830 -159.564072 -45.969838 -173.509310 1.929649 -2.295921 -35.136371 -26.296712 0.045723 3.779172 -24.310397 -32.907810 5.154184 151.243808 -57.766928 179.510633 4.574179 -0.668597 1.210469 5.296936 -63.223879 6.268323 -137.659979 65.940275 -134.819916 -8.895992 -26.133499 9.114239 -0.456845 -0.640317 -0.251498 -1.404349 -52.416578 -0.528012 174.304212 63.118923 173.521556 0.441525 -35.681740 1.682727 0.316862 0.328003 0.042044
-76.245427 44.472412 19.507073 177.063740 -28.878067 -2.606133 2.770208 13.266383 1.526272 0.178526 1.083406 0.140931 0.304607 1.838772 0.241296 2.147364 11.930104 1.766628 0.128487 21.772655 -1.153457 0.400839 -2.496935 -1.264066 7.185022 -0.894363 -4.657005 17.070818 -19.946594 -8.117219 -159.044975 -46.060644 -173.751661 1.563908 -2.392983 -35.636076 -26.502924 0.214857 4.030818 -24.804453 -32.983127 5.484236 151.483668 -57.879986 179.562310 4.280479 -0.503147 1.712585 5.153732 -63.033433 6.405852 -137.572543 65.949544 -134.737004 -8.883752 -26.121755 9.133457 -0.412826 -0.606381 -0.282517 -1.363692 -52.237554 -0.545940 174.171323 63.102489 173.456318 0.476234 -35.691891 1.658392 0.309339 0.358461 0.023294
-76.251648 44.447815 19.536895 177.032907 -29.087520 -2.641624 2.789041 13.204664 1.434960 0.180326 1.074251 0.130586 0.307631 1.823862 0.223842 2.166611 11.890601 1.660813 0.249929 21.784537 -0.985562 0.492407 -2.484787 -1.111993 6.995685 -1.097734 -4.427250 17.338592 -20.123514 -8.437823 -158.423582 -46.269998 -174.075998 0.844738 -2.914536 -36.372140 -26.741022 0.340948 4.238238 -25.247265 -32.960894 5.735395 151.953719 -57.933771 179.463689 4.068998 -0.131039 2.188018 5.004390 -62.851387 6.550309 -137.470422 65.950941 -134.641070 -8.872438 -26.102856 9.150700 -0.422173 -0.558538 -0.261060 -1.320190 -52.071351 -0.586363 174.105798 63.094067 173.473589 0.565709 -35.686629 1.598875 0.309481 0.392745 0.030424
-76.255924 44.421656 19.568195 176.974194 -29.333740 -2.661125 2.813408 13.186707 1.373732 0.181120 1.067707 0.122839 0.308890 1.813265 0.210714 2.174468 11.862914 1.579878 0.367567 21.789370 -0.872540 0.592529 -2.479791 -1.017783 6.841508 -1.306888 -4.278783 17.657550 -20.283607 -8.694961 -157.822678 -46.536726 -174.413867 0.250006 -3.382065 -37.315478 -26.964795 0.416353 4.379311 -25.488217 -32.858258 5.834526 152.310317 -57.882176 179.382144 3.839162 0.205890 2.626984 4.885018 -62.644697 6.700868 -137.351498 65.943617 -134.528153 -8.905799 -26.060384 9.228447 -0.358082 -0.525432 -0.304623 -1.239501 -51.867397 -0.618931 174.044541 63.075695 173.480783 0.651985 -35.686137 1.557505 0.288318 0.418124 0.031775
-76.256064 44.394400 19.602136 176.893412 -29.602537 -2.673220 2.842295 13.187419 1.352867 0.180458 1.061898 0.117754 0.307791 1.803776 0.202118 2.168547 11.837847 1.526548 0.475612 21.792043 -0.818638 0.695945 -2.476415 -0.984773 6.728670 -1.483926 -4.210962 17.983882 -20.422165 -8.892335 -157.306353 -46.784688 -174.727376 0.051167 -3.554934 -38.279119 -27.153411 0.455377 4.427892 -25.444907 -32.720526 5.750463 152.479974 -57.722580 179.320251 3.518378 0.507577 2.999065 4.764130 -62.425063 6.881851 -137.207093 65.927486 -134.397323 -8.921392 -26.008409 9.268899 -0.304889 -0.494817 -0.314464 -1.177694 -51.634964 -0.591746 174.015749 63.057089 173.488600 0.708166 -35.702975 1.523594 0.269842 0.453585 0.043964
